<svg width="19" height="16" viewBox="0 0 19 16" fill="none" xmlns="http://www.w3.org/2000/svg">
<path d="M1 15V1C1 1 5.05761 1 6.17695 1C7.2963 1 7.85597 2.68844 7.85597 2.68844C7.85597 2.68844 15.6914 2.40704 15.6914 3.81408C15.6914 5.22111 15.6914 5.01005 15.6914 5.01005M1 15H14.642L15.3041 13.0302M1 15L1.60302 13.3116M15.6914 5.01005H18L16.7703 8.66835M15.6914 5.01005H12.0535M12.0535 5.01005L12.4733 6.76885M12.0535 5.01005H4.5679L4 6.5M12.4733 6.76885L14.0123 8.31659M12.4733 6.76885L10.9342 7.40202M14.0123 8.31659L16.7703 8.66835M14.0123 8.31659L12.893 9.65327M16.7703 8.66835L15.3041 13.0302M1.60302 13.3116L4.5679 12.6784L7.15638 12.8895H9.88478L11.4938 12.2563H13.6626L15.3041 13.0302M1.60302 13.3116L3 9M3 9C3 9 5.14156 9.74699 6.5 9.5C7.10751 9.38954 7.54884 9.42158 8 9C8.58824 8.45033 8.97011 7.65357 8.5 7C8.13944 6.49873 7.61747 6.5 7 6.5C6.5 6.5 6 6.5 5.5 6.5C4.84972 6.5 4 6.5 4 6.5M3 9L4 6.5" stroke="white"/>
</svg>
